<svg xmlns="http://www.w3.org/2000/svg" xmlns:xlink="http://www.w3.org/1999/xlink" width="122" zoomAndPan="magnify" viewBox="0 0 91.5 91.499997" height="122" preserveAspectRatio="xMidYMid meet" version="1.2"><defs><clipPath id="a23ecdd0f5"><path d="M 0 0 L 91.003906 0 L 91.003906 91.003906 L 0 91.003906 Z M 0 0 "/></clipPath><clipPath id="26f8a2b57f"><path d="M 0 0 L 90.257812 0 L 90.257812 90.257812 L 0 90.257812 Z M 0 0 "/></clipPath></defs><g id="5dd59bce16"><g clip-rule="nonzero" clip-path="url(#a23ecdd0f5)"><path style=" stroke:none;fill-rule:nonzero;fill:#ffffff;fill-opacity:1;" d="M 0 0 L 91.003906 0 L 91.003906 91.003906 L 0 91.003906 Z M 0 0 "/></g><g clip-rule="nonzero" clip-path="url(#26f8a2b57f)"><path style=" stroke:none;fill-rule:nonzero;fill:#ffffff;fill-opacity:1;" d="M 0 0 L 90.257812 0 L 90.257812 90.257812 L 0 90.257812 Z M 0 0 "/></g><path style="fill-rule:nonzero;fill:#ffffff;fill-opacity:1;stroke-width:1;stroke-linecap:butt;stroke-linejoin:miter;stroke:#000000;stroke-opacity:1;stroke-miterlimit:4;" d="M 1.999495 2.49937 L 9.000587 2.49937 M 11.999831 2.49937 L 13.999326 2.49937 M 15.000502 2.49937 L 16.00025 2.49937 M 16.999998 2.49937 L 17.999746 2.49937 M 18.999494 2.49937 L 20.00067 2.49937 M 22.000166 2.49937 L 22.999914 2.49937 M 23.999662 2.49937 L 30.999325 2.49937 M 1.999495 3.500546 L 3.000671 3.500546 M 7.999411 3.500546 L 9.000587 3.500546 M 11.000083 3.500546 L 12.999578 3.500546 M 13.999326 3.500546 L 17.999746 3.500546 M 18.999494 3.500546 L 21.000418 3.500546 M 22.000166 3.500546 L 22.999914 3.500546 M 23.999662 3.500546 L 24.999409 3.500546 M 29.999577 3.500546 L 30.999325 3.500546 M 1.999495 4.500294 L 3.000671 4.500294 M 4.000419 4.500294 L 6.999663 4.500294 M 7.999411 4.500294 L 9.000587 4.500294 M 10.000335 4.500294 L 11.999831 4.500294 M 12.999578 4.500294 L 16.00025 4.500294 M 16.999998 4.500294 L 17.999746 4.500294 M 20.00067 4.500294 L 22.000166 4.500294 M 23.999662 4.500294 L 24.999409 4.500294 M 26.000586 4.500294 L 28.999829 4.500294 M 29.999577 4.500294 L 30.999325 4.500294 M 1.999495 5.500042 L 3.000671 5.500042 M 4.000419 5.500042 L 6.999663 5.500042 M 7.999411 5.500042 L 9.000587 5.500042 M 10.000335 5.500042 L 11.000083 5.500042 M 12.999578 5.500042 L 13.999326 5.500042 M 16.00025 5.500042 L 17.999746 5.500042 M 18.999494 5.500042 L 20.00067 5.500042 M 22.000166 5.500042 L 22.999914 5.500042 M 23.999662 5.500042 L 24.999409 5.500042 M 26.000586 5.500042 L 28.999829 5.500042 M 29.999577 5.500042 L 30.999325 5.500042 M 1.999495 6.499789 L 3.000671 6.499789 M 4.000419 6.499789 L 6.999663 6.499789 M 7.999411 6.499789 L 9.000587 6.499789 M 10.000335 6.499789 L 11.000083 6.499789 M 11.999831 6.499789 L 12.999578 6.499789 M 20.00067 6.499789 L 22.000166 6.499789 M 23.999662 6.499789 L 24.999409 6.499789 M 26.000586 6.499789 L 28.999829 6.499789 M 29.999577 6.499789 L 30.999325 6.499789 M 1.999495 7.499537 L 3.000671 7.499537 M 7.999411 7.499537 L 9.000587 7.499537 M 10.000335 7.499537 L 11.000083 7.499537 M 13.999326 7.499537 L 15.000502 7.499537 M 16.999998 7.499537 L 20.00067 7.499537 M 23.999662 7.499537 L 24.999409 7.499537 M 29.999577 7.499537 L 30.999325 7.499537 M 1.999495 8.500713 L 9.000587 8.500713 M 10.000335 8.500713 L 11.000083 8.500713 M 11.999831 8.500713 L 12.999578 8.500713 M 13.999326 8.500713 L 15.000502 8.500713 M 16.00025 8.500713 L 16.999998 8.500713 M 17.999746 8.500713 L 18.999494 8.500713 M 20.00067 8.500713 L 21.000418 8.500713 M 22.000166 8.500713 L 22.999914 8.500713 M 23.999662 8.500713 L 30.999325 8.500713 M 10.000335 9.500461 L 11.000083 9.500461 M 11.999831 9.500461 L 12.999578 9.500461 M 16.00025 9.500461 L 17.999746 9.500461 M 21.000418 9.500461 L 22.999914 9.500461 M 1.999495 10.500209 L 3.000671 10.500209 M 4.000419 10.500209 L 9.000587 10.500209 M 11.999831 10.500209 L 13.999326 10.500209 M 17.999746 10.500209 L 20.00067 10.500209 M 23.999662 10.500209 L 28.999829 10.500209 M 1.999495 11.499957 L 5.000167 11.499957 M 6.999663 11.499957 L 7.999411 11.499957 M 9.000587 11.499957 L 11.000083 11.499957 M 11.999831 11.499957 L 16.999998 11.499957 M 21.000418 11.499957 L 22.999914 11.499957 M 23.999662 11.499957 L 27.000333 11.499957 M 29.999577 11.499957 L 30.999325 11.499957 M 1.999495 12.499705 L 3.000671 12.499705 M 4.000419 12.499705 L 5.000167 12.499705 M 6.999663 12.499705 L 9.000587 12.499705 M 10.000335 12.499705 L 11.000083 12.499705 M 11.999831 12.499705 L 12.999578 12.499705 M 13.999326 12.499705 L 17.999746 12.499705 M 18.999494 12.499705 L 21.000418 12.499705 M 22.999914 12.499705 L 23.999662 12.499705 M 24.999409 12.499705 L 27.000333 12.499705 M 3.000671 13.499453 L 5.999915 13.499453 M 11.999831 13.499453 L 12.999578 13.499453 M 13.999326 13.499453 L 16.00025 13.499453 M 16.999998 13.499453 L 18.999494 13.499453 M 21.000418 13.499453 L 22.000166 13.499453 M 23.999662 13.499453 L 26.000586 13.499453 M 27.000333 13.499453 L 28.000081 13.499453 M 28.999829 13.499453 L 29.999577 13.499453 M 6.999663 14.500629 L 9.000587 14.500629 M 10.000335 14.500629 L 11.000083 14.500629 M 12.999578 14.500629 L 15.000502 14.500629 M 16.00025 14.500629 L 17.999746 14.500629 M 18.999494 14.500629 L 21.000418 14.500629 M 22.999914 14.500629 L 23.999662 14.500629 M 27.000333 14.500629 L 28.999829 14.500629 M 3.000671 15.500377 L 7.999411 15.500377 M 9.000587 15.500377 L 11.999831 15.500377 M 17.999746 15.500377 L 18.999494 15.500377 M 22.000166 15.500377 L 27.000333 15.500377 M 29.999577 15.500377 L 30.999325 15.500377 M 1.999495 16.500125 L 3.000671 16.500125 M 5.000167 16.500125 L 5.999915 16.500125 M 7.999411 16.500125 L 10.000335 16.500125 M 11.000083 16.500125 L 11.999831 16.500125 M 12.999578 16.500125 L 15.000502 16.500125 M 16.999998 16.500125 L 20.00067 16.500125 M 22.000166 16.500125 L 22.999914 16.500125 M 23.999662 16.500125 L 24.999409 16.500125 M 27.000333 16.500125 L 28.999829 16.500125 M 3.000671 17.499873 L 5.000167 17.499873 M 10.000335 17.499873 L 11.000083 17.499873 M 11.999831 17.499873 L 13.999326 17.499873 M 16.00025 17.499873 L 18.999494 17.499873 M 20.00067 17.499873 L 22.000166 17.499873 M 22.999914 17.499873 L 24.999409 17.499873 M 26.000586 17.499873 L 27.000333 17.499873 M 28.999829 17.499873 L 29.999577 17.499873 M 5.999915 18.499621 L 6.999663 18.499621 M 7.999411 18.499621 L 10.000335 18.499621 M 11.999831 18.499621 L 12.999578 18.499621 M 13.999326 18.499621 L 15.000502 18.499621 M 18.999494 18.499621 L 22.000166 18.499621 M 24.999409 18.499621 L 26.000586 18.499621 M 27.000333 18.499621 L 28.999829 18.499621 M 1.999495 19.499368 L 3.000671 19.499368 M 4.000419 19.499368 L 5.000167 19.499368 M 10.000335 19.499368 L 13.999326 19.499368 M 15.000502 19.499368 L 18.999494 19.499368 M 22.000166 19.499368 L 27.000333 19.499368 M 28.000081 19.499368 L 28.999829 19.499368 M 29.999577 19.499368 L 30.999325 19.499368 M 1.999495 20.500545 L 3.000671 20.500545 M 4.000419 20.500545 L 5.000167 20.500545 M 5.999915 20.500545 L 11.000083 20.500545 M 12.999578 20.500545 L 13.999326 20.500545 M 15.000502 20.500545 L 18.999494 20.500545 M 22.000166 20.500545 L 22.999914 20.500545 M 24.999409 20.500545 L 26.000586 20.500545 M 28.000081 20.500545 L 28.999829 20.500545 M 1.999495 21.500292 L 3.000671 21.500292 M 4.000419 21.500292 L 6.999663 21.500292 M 9.000587 21.500292 L 13.999326 21.500292 M 15.000502 21.500292 L 16.00025 21.500292 M 20.00067 21.500292 L 22.999914 21.500292 M 23.999662 21.500292 L 26.000586 21.500292 M 28.999829 21.500292 L 29.999577 21.500292 M 1.999495 22.50004 L 3.000671 22.50004 M 4.000419 22.50004 L 5.000167 22.50004 M 7.999411 22.50004 L 9.000587 22.50004 M 10.000335 22.50004 L 11.000083 22.50004 M 16.00025 22.50004 L 16.999998 22.50004 M 18.999494 22.50004 L 20.00067 22.50004 M 21.000418 22.50004 L 27.000333 22.50004 M 28.000081 22.50004 L 30.999325 22.50004 M 10.000335 23.499788 L 11.000083 23.499788 M 11.999831 23.499788 L 12.999578 23.499788 M 17.999746 23.499788 L 21.000418 23.499788 M 22.000166 23.499788 L 22.999914 23.499788 M 26.000586 23.499788 L 30.999325 23.499788 M 1.999495 24.499536 L 9.000587 24.499536 M 11.000083 24.499536 L 12.999578 24.499536 M 16.999998 24.499536 L 22.999914 24.499536 M 23.999662 24.499536 L 24.999409 24.499536 M 26.000586 24.499536 L 28.999829 24.499536 M 1.999495 25.500712 L 3.000671 25.500712 M 7.999411 25.500712 L 9.000587 25.500712 M 10.000335 25.500712 L 12.999578 25.500712 M 13.999326 25.500712 L 15.000502 25.500712 M 16.00025 25.500712 L 16.999998 25.500712 M 20.00067 25.500712 L 21.000418 25.500712 M 22.000166 25.500712 L 22.999914 25.500712 M 26.000586 25.500712 L 27.000333 25.500712 M 28.999829 25.500712 L 29.999577 25.500712 M 1.999495 26.50046 L 3.000671 26.50046 M 4.000419 26.50046 L 6.999663 26.50046 M 7.999411 26.50046 L 9.000587 26.50046 M 10.000335 26.50046 L 11.000083 26.50046 M 11.999831 26.50046 L 15.000502 26.50046 M 18.999494 26.50046 L 20.00067 26.50046 M 22.000166 26.50046 L 27.000333 26.50046 M 28.000081 26.50046 L 28.999829 26.50046 M 1.999495 27.500208 L 3.000671 27.500208 M 4.000419 27.500208 L 6.999663 27.500208 M 7.999411 27.500208 L 9.000587 27.500208 M 10.000335 27.500208 L 11.999831 27.500208 M 12.999578 27.500208 L 15.000502 27.500208 M 16.00025 27.500208 L 16.999998 27.500208 M 17.999746 27.500208 L 18.999494 27.500208 M 21.000418 27.500208 L 22.000166 27.500208 M 27.000333 27.500208 L 30.999325 27.500208 M 1.999495 28.499956 L 3.000671 28.499956 M 4.000419 28.499956 L 6.999663 28.499956 M 7.999411 28.499956 L 9.000587 28.499956 M 10.000335 28.499956 L 11.000083 28.499956 M 12.999578 28.499956 L 13.999326 28.499956 M 15.000502 28.499956 L 18.999494 28.499956 M 20.00067 28.499956 L 22.000166 28.499956 M 22.999914 28.499956 L 29.999577 28.499956 M 1.999495 29.499704 L 3.000671 29.499704 M 7.999411 29.499704 L 9.000587 29.499704 M 15.000502 29.499704 L 16.00025 29.499704 M 16.999998 29.499704 L 17.999746 29.499704 M 22.000166 29.499704 L 22.999914 29.499704 M 23.999662 29.499704 L 24.999409 29.499704 M 27.000333 29.499704 L 28.000081 29.499704 M 28.999829 29.499704 L 29.999577 29.499704 M 1.999495 30.499452 L 9.000587 30.499452 M 10.000335 30.499452 L 11.000083 30.499452 M 16.00025 30.499452 L 16.999998 30.499452 M 17.999746 30.499452 L 20.00067 30.499452 M 21.000418 30.499452 L 22.000166 30.499452 M 22.999914 30.499452 L 23.999662 30.499452 M 24.999409 30.499452 L 27.000333 30.499452 M 28.000081 30.499452 L 28.999829 30.499452 " transform="matrix(2.735065,0,0,2.735065,0.0000015,0)"/></g></svg>